<?xml version="1.0" encoding="iso-8859-1"?>
<!-- Uploaded to: SVG Repo, www.svgrepo.com, Generator: SVG Repo Mixer Tools -->
<svg version="1.1" id="Layer_1" xmlns="http://www.w3.org/2000/svg" xmlns:xlink="http://www.w3.org/1999/xlink" 
	 viewBox="0 0 512 512" xml:space="preserve">
<polygon style="fill:#F2BF7E;" points="263.789,8.568 263.789,249.388 240.024,288.974 504.73,288.974 504.73,8.568 "/>
<polygon style="fill:#C5FFCA;" points="376.038,81.371 320.032,81.371 352.036,49.367 408.041,49.367 "/>
<rect x="320.036" y="81.37" style="fill:#B3B3B3;" width="56.005" height="72.002"/>
<polygon style="fill:#AA603B;" points="448.045,153.378 376.038,153.378 376.038,81.371 408.042,49.367 416.042,49.367 
	448.045,81.371 "/>
<rect x="400.035" y="121.374" style="fill:#FFFFFF;" width="24.001" height="32.004"/>
<rect x="376.034" y="217.387" style="fill:#B3B3B3;" width="80.009" height="32.004"/>
<g>
	<rect x="71.659" y="389.857" style="fill:#C5FFCA;" width="120.471" height="24.001"/>
	<rect x="71.659" y="277.851" style="fill:#C5FFCA;" width="120.356" height="24.001"/>
</g>
<rect x="88.006" y="301.852" style="fill:#F2BF7E;" width="88.006" height="88.006"/>
<g>
	<path style="fill:#AA603B;" d="M200.021,333.857H492.05c6.628,0,12.001,5.373,12.001,12.001l0,0
		c0,6.628-5.373,12.001-12.001,12.001H200.021"/>
	<rect x="72.002" y="253.85" style="fill:#AA603B;" width="120.014" height="24.001"/>
	<rect x="72.002" y="413.868" style="fill:#AA603B;" width="120.014" height="24.001"/>
</g>
<rect x="48.001" y="469.866" style="fill:#C5FFCA;" width="176.022" height="32.004"/>
<path d="M231.811,509.663H40.216v-47.581h191.595V509.663z M55.794,494.085h160.439v-16.424H55.794V494.085z"/>
<path d="M199.809,445.657H64.218v-39.581h135.591L199.809,445.657L199.809,445.657z M79.796,430.079h104.435v-8.425H79.796V430.079z
	"/>
<path d="M199.809,285.641H64.218V246.06h135.591L199.809,285.641L199.809,285.641z M79.796,270.063h104.435v-8.425H79.796V270.063z"
	/>
<path d="M192.13,309.744v-15.578H71.659v15.578h8.308v72.698h-8.308v15.578H192.13v-15.578h-9.347v-72.698H192.13z M95.546,382.442
	v-72.698h71.659v72.698H95.546z"/>
<path d="M492.05,326.068H207.708v-9.054H192.13v57.12h15.578v-8.485H492.05c10.912,0,19.79-8.878,19.79-19.79
	S502.962,326.068,492.05,326.068z M492.05,350.071H207.708v-8.425H492.05c2.322,0,4.212,1.889,4.212,4.213
	C496.262,348.182,494.372,350.071,492.05,350.071z"/>
<rect x="226.235" y="413.72" transform="matrix(-0.7071 -0.7071 0.7071 -0.7071 96.9584 895.8911)" width="15.578" height="28.29"/>
<rect x="248.211" y="445.793" width="23.886" height="15.578"/>
<rect x="23.864" y="420.073" transform="matrix(-0.7071 -0.7071 0.7071 -0.7071 -237.6593 757.2825)" width="28.29" height="15.578"/>
<rect y="445.793" width="23.886" height="15.578"/>
<path d="M512,297.282H226.203l30.316-50.069V2.337H512V297.282z M253.846,281.704h242.576V17.915H272.097v233.648L253.846,281.704z"
	/>
<path d="M454.88,145.655V78.198l-35.559-36.397h-11.176h-3.272H348.8L312.6,78.154v67.501h-8.308v15.578h158.897v-15.578H454.88z
	 M411.209,57.379h1.553l26.541,27.165v61.111h-8.308V113.46h-39.465v32.195h-8.308V84.657L411.209,57.379z M415.416,145.655h-8.308
	v-16.617h8.308V145.655z M355.272,57.379h33.618l-17.05,16.617h-33.114L355.272,57.379z M328.178,89.574h39.465v56.081h-39.465
	V89.574z"/>
<g>
	<rect x="399.838" y="82.304" style="fill:#FFFFFF;" width="23.886" height="15.578"/>
	<rect x="335.448" y="106.191" style="fill:#FFFFFF;" width="24.925" height="15.578"/>
</g>
<rect x="304.292" y="177.85" width="158.897" height="15.578"/>
<rect x="304.292" y="209.006" style="fill:#FFFFFF;" width="47.773" height="15.578"/>
<rect x="304.292" y="241.201" width="23.886" height="15.578"/>
<path d="M463.835,257.177h-95.586v-47.581h95.586V257.177z M383.827,241.599h64.43v-16.424h-64.43V241.599z"/>
</svg>